<svg xmlns="http://www.w3.org/2000/svg" viewBox="0 0 720 480">
  <defs>
    <linearGradient id="g2" x1="0" y1="0" x2="1" y2="1">
      <stop offset="0%" stop-color="#9B8CFF"/>
      <stop offset="100%" stop-color="#33DFC7"/>
    </linearGradient>
    <linearGradient id="g3" x1="0" y1="1" x2="1" y2="0">
      <stop offset="0%" stop-color="#FF6584"/>
      <stop offset="100%" stop-color="#6C63FF"/>
    </linearGradient>
  </defs>
  <rect width="720" height="480" fill="#0B1220"/>
  <g transform="translate(60 60)">
    <rect width="600" height="360" rx="24" fill="#101826" stroke="#1f2a44"/>
    <rect x="24" y="24" width="552" height="60" rx="12" fill="#0f172a" stroke="#27324a"/>
    <circle cx="60" cy="54" r="10" fill="#6C63FF"/>
    <circle cx="90" cy="54" r="10" fill="#00BFA6"/>
    <circle cx="120" cy="54" r="10" fill="#FF6584"/>

    <rect x="24" y="108" width="360" height="16" rx="8" fill="url(#g2)" opacity="0.9"/>
    <rect x="24" y="140" width="420" height="12" rx="6" fill="#1f2a44"/>
    <rect x="24" y="164" width="330" height="12" rx="6" fill="#1f2a44"/>

    <rect x="24" y="208" width="552" height="120" rx="16" fill="#0f172a" stroke="#27324a"/>
    <rect x="44" y="228" width="180" height="12" rx="6" fill="url(#g3)" opacity="0.9"/>
    <rect x="44" y="252" width="240" height="10" rx="5" fill="#213052"/>
    <rect x="44" y="272" width="300" height="10" rx="5" fill="#213052"/>
  </g>
</svg>
